<?xml version="1.0" encoding="UTF-8"?>
<svg xmlns="http://www.w3.org/2000/svg" id="Layer_1" data-name="Layer 1" viewBox="0 0 158.24 48.13">
  <defs>
    <style>
      .cls-1 {
        fill: #102445;
      }

      .cls-2 {
        fill: #ccbd92;
      }
    </style>
  </defs>
  <path class="cls-1" d="M17.6,33.88v-6.34h32.12v11.83c0,4.03-3.26,7.31-7.29,7.32-6.46.03-15.68.05-21.08.05-9.49-.01-16.75-6.98-16.79-16.08-.03-9.22,7.22-16.23,16.81-16.24,3.58,0,7.16,0,10.74,0,3.88,0,4.81.93,4.77,4.74,0,.47-.04.93-.07,1.68-1.83,0-3.63,0-5.43,0-3.65,0-7.29-.06-10.94.02-5.16.11-9.36,4.37-9.46,9.48-.1,5.14,3.88,9.77,9.01,9.9,6.94.18,13.89.08,20.97.06,1.26,0,2.28-1.02,2.28-2.28v-4.13h-25.64Z"></path>
  <path class="cls-2" d="M7.97,1.49c9.02,0,17.86-.27,26.68.07,9.65.37,15.96,8.61,15.05,19.12h-6.3c0-.95.02-1.99,0-3.03-.1-5.49-4.29-9.72-9.8-9.75-8.5-.05-16.99-.01-25.63-.01V1.49Z"></path>
  <path class="cls-2" d="M139.81,15.71l3.9-8.85,3.9,8.85h-7.79ZM150.49,22.29h2.71l-8.21-18.07h-2.56l-8.18,18.07h2.66l1.99-4.52h9.6l1.99,4.52ZM125.97,20.2h-5.94v-6.01h5.94c2.86,0,4.41.93,4.41,3.02s-1.55,2.99-4.41,2.99ZM125.33,6.32c2.63,0,4.13.98,4.13,2.89s-1.5,2.89-4.13,2.89h-5.29v-5.78h5.29ZM129.61,12.92c1.42-.7,2.43-2.06,2.43-4.03,0-2.92-2.32-4.67-6.48-4.67h-8.1v18.07h8.62c4.57,0,6.92-1.78,6.92-4.88,0-2.4-1.34-3.92-3.38-4.49ZM101.37,15.71l3.9-8.85,3.9,8.85h-7.79ZM112.06,22.29h2.71l-8.21-18.07h-2.56l-8.18,18.07h2.66l1.99-4.52h9.6l1.99,4.52ZM87.54,20.2h-5.94v-6.01h5.94c2.86,0,4.41.93,4.41,3.02s-1.55,2.99-4.41,2.99ZM86.89,6.32c2.63,0,4.13.98,4.13,2.89s-1.5,2.89-4.13,2.89h-5.29v-5.78h5.29ZM91.18,12.92c1.42-.7,2.43-2.06,2.43-4.03,0-2.92-2.32-4.67-6.48-4.67h-8.1v18.07h8.62c4.57,0,6.92-1.78,6.92-4.88,0-2.4-1.34-3.92-3.38-4.49ZM62.94,15.71l3.9-8.85,3.9,8.85h-7.79ZM73.62,22.29h2.71l-8.21-18.07h-2.56l-8.18,18.07h2.66l1.99-4.52h9.6l1.99,4.52Z"></path>
  <path class="cls-1" d="M147.68,30.82v-5.3h1.91c1.74,0,2.86,1.07,2.86,2.65s-1.12,2.65-2.86,2.65h-1.91ZM146.67,31.7h2.98c2.27,0,3.81-1.43,3.81-3.53s-1.54-3.53-3.81-3.53h-2.98v7.06ZM139.92,30.82v-2.28h3.54v-.86h-3.54v-2.17h3.97v-.88h-4.98v7.06h5.12v-.88h-4.11ZM133.38,31.7h1v-6.18h2.42v-.88h-5.84v.88h2.42v6.18ZM127.84,31.7h1.01v-7.06h-1.01v7.06ZM124.71,31.7v-7.06h-.84l-2.9,4.96-2.94-4.96h-.83v7.06h.97v-5.11l2.55,4.26h.46l2.55-4.29v5.14h.98ZM113.07,31.7h1.01v-7.06h-1.01v7.06ZM106.07,31.7h4.83v-.88h-3.82v-6.18h-1.01v7.06ZM96.78,28.68h-1.71v-3.17h1.71c1.29,0,1.97.57,1.97,1.58s-.68,1.58-1.97,1.58ZM96.81,24.64h-2.75v7.06h1.01v-2.14h1.74c1.84,0,2.94-.93,2.94-2.46s-1.11-2.46-2.94-2.46ZM87.99,31.78c1.87,0,2.99-1.08,2.99-3.13v-4.01h-.98v3.97c0,1.56-.73,2.27-2,2.27s-1.99-.71-1.99-2.27v-3.97h-1.01v4.01c0,2.05,1.13,3.13,2.99,3.13ZM78.77,30.88c-1.58,0-2.75-1.15-2.75-2.71s1.17-2.71,2.75-2.71,2.73,1.15,2.73,2.71-1.17,2.71-2.73,2.71ZM78.77,31.78c2.15,0,3.74-1.53,3.74-3.61s-1.59-3.61-3.74-3.61-3.76,1.54-3.76,3.61,1.59,3.61,3.76,3.61ZM69.97,28.69h-1.71v-3.18h1.71c1.29,0,1.97.57,1.97,1.58s-.68,1.59-1.97,1.59ZM73.06,31.7l-1.67-2.37c.99-.35,1.55-1.14,1.55-2.23,0-1.53-1.11-2.46-2.94-2.46h-2.75v7.06h1.01v-2.15h1.74c.15,0,.3-.01.44-.02l1.52,2.17h1.1ZM63.34,30.43c-.5.32-1.06.45-1.65.45-1.62,0-2.8-1.16-2.8-2.71s1.18-2.71,2.81-2.71c.8,0,1.46.25,2.05.82l.63-.63c-.65-.72-1.59-1.09-2.71-1.09-2.19,0-3.78,1.52-3.78,3.61s1.59,3.61,3.76,3.61c.99,0,1.97-.3,2.67-.9v-2.75h-.97v2.3Z"></path>
  <path class="cls-1" d="M151.3,40.05c.18-.22.41-.32.7-.32.19,0,.36.04.5.13.14.09.25.19.3.32.09.21.14.43.14.66v.22c-.18.02-.37.03-.57.03-.49,0-.94,0-1.35-.03,0-.45.1-.79.27-1ZM152.01,41.34c.5,0,.89-.01,1.17-.03.16-.01.32-.04.5-.08v-.23c0-.49-.13-.87-.4-1.14-.27-.27-.64-.41-1.1-.41-.31,0-.62.09-.95.27s-.55.38-.67.59c-.18.32-.28.7-.28,1.14,0,.58.16,1.03.49,1.37.33.34.76.51,1.29.51.24,0,.48-.03.71-.09.23-.06.46-.16.67-.28l.13-.33-.07-.06c-.18.12-.36.21-.54.27-.18.06-.36.09-.55.09-.41,0-.74-.13-.99-.4-.25-.27-.38-.66-.4-1.18h.98ZM146.76,39.56l-.02-.11-.06-.02-.09.03c-.15.07-.33.13-.53.18s-.43.08-.68.11v.23h.33c.18,0,.29.04.32.11.05.11.07.48.07,1.11,0,.52,0,.97-.03,1.35-.01.22-.03.34-.07.38s-.12.06-.25.07l-.38.03v.23c.34-.02.69-.03,1.03-.03s.74,0,1.14.03v-.23h-.24c-.19,0-.34-.03-.44-.08-.04-.02-.07-.08-.08-.17-.03-.25-.04-.56-.04-.92,0-.55.02-.92.07-1.11s.13-.34.26-.44c.13-.1.28-.16.43-.16.12,0,.21.03.3.08.08.06.15.15.21.28h.18c0-.38.03-.68.07-.89v-.04s-.05-.07-.05-.07c-.08-.03-.19-.05-.33-.05s-.27.04-.4.11c-.13.07-.26.2-.41.39-.12.16-.24.29-.34.39l.02-.78ZM142.2,39.63c-.15.04-.39.08-.71.13v.23h.3c.14,0,.23.02.27.05.04.03.06.09.07.17.01.22.02.54.02.94,0,.59,0,1.05-.02,1.38,0,.22-.03.34-.06.38-.03.04-.11.06-.24.07l-.34.04v.23c.31-.02.63-.03.94-.03s.66,0,1.05.03v-.23l-.27-.04c-.15-.02-.24-.05-.28-.08-.04-.04-.06-.1-.07-.2-.02-.24-.04-.53-.04-.87,0-.36,0-.93.03-1.7,0-.24.02-.45.04-.65l-.09-.06c-.24.09-.43.16-.58.2ZM142.16,37.82c-.09.09-.13.19-.13.32s.04.23.13.31c.09.09.19.13.31.13s.22-.04.31-.13c.09-.09.13-.19.13-.31s-.04-.23-.13-.32c-.09-.09-.19-.13-.31-.13s-.23.04-.31.13ZM136.37,41.17c0-.3.01-.49.04-.56.03-.09.1-.2.22-.31.11-.11.24-.2.39-.26.15-.06.3-.09.46-.09.22,0,.43.06.62.18.19.12.34.28.44.48.1.21.15.45.15.74,0,.43-.11.8-.33,1.11-.22.31-.54.47-.95.47-.19,0-.37-.04-.54-.12-.17-.08-.34-.21-.5-.4v-1.24ZM136.37,39.96v-.42c.01-.07,0-.11-.05-.11l-.24.09c-.35.11-.71.18-1.08.22v.24h.31c.15,0,.24.02.29.05.04.04.07.11.08.22.02.23.03.55.03.97v2.42c0,.84-.02,1.3-.06,1.38-.04.09-.16.13-.36.13h-.29v.22c.39-.02.72-.03.97-.03.23,0,.6,0,1.09.03v-.22h-.21c-.19,0-.31-.02-.37-.07-.06-.05-.09-.12-.1-.22-.02-.23-.02-.63-.02-1.2v-.55c.15.07.29.12.43.16.14.04.27.05.39.05.16,0,.3-.02.42-.06s.28-.13.48-.27l.16-.11c.28-.18.44-.28.48-.31.12-.09.22-.21.32-.35.09-.14.17-.32.24-.54.07-.22.1-.45.1-.67,0-.46-.14-.83-.43-1.12-.29-.29-.67-.43-1.13-.43-.21,0-.39.02-.54.07-.1.03-.21.11-.35.23l-.55.49v-.28ZM130.17,42.05v.19c0,.14,0,.34-.03.6,0,.1-.02.17-.03.21v.06s.02.06.09.08c.4.1.76.15,1.09.15.51,0,.91-.13,1.21-.39s.45-.56.45-.92c0-.17-.04-.33-.11-.46s-.17-.23-.29-.3-.37-.14-.75-.21c-.51-.1-.82-.2-.94-.29-.11-.09-.17-.22-.17-.4s.07-.34.21-.46c.14-.12.33-.18.57-.18.18,0,.35.04.51.12s.27.17.33.26c.04.07.07.23.07.46h.24c.01-.42.03-.72.06-.9-.37-.15-.73-.22-1.1-.22-.47,0-.82.11-1.08.33-.25.22-.38.5-.38.85,0,.19.04.35.13.48.08.13.21.24.38.32.17.08.51.17,1.03.28.28.06.47.14.57.23.1.1.15.23.15.39,0,.2-.09.38-.26.52s-.39.22-.66.22c-.21,0-.41-.04-.61-.12-.2-.08-.33-.16-.4-.24-.04-.05-.06-.18-.06-.38v-.26h-.24ZM124.94,39.66v-.15c0-.06-.02-.09-.06-.09l-.07.02c-.22.09-.42.16-.6.2-.18.04-.38.08-.6.11v.23h.28c.17,0,.27.02.31.05.04.03.06.09.06.17.01.25.02.61.02,1.05,0,1-.02,1.54-.05,1.63s-.15.14-.34.14h-.28v.23c.35-.02.67-.03.95-.03.26,0,.62,0,1.06.03v-.23h-.28c-.15,0-.26-.03-.32-.09-.03-.03-.05-.11-.06-.23,0-.41-.01-.86-.01-1.34,0-.43.01-.7.04-.8.04-.15.15-.3.33-.42.18-.13.39-.19.65-.19.21,0,.38.04.53.13.15.09.25.21.31.35.06.15.09.4.09.75,0,.87-.02,1.56-.07,2.07.23-.02.44-.03.64-.03s.45,0,.73.03v-.23h-.28c-.14,0-.24-.04-.29-.13-.04-.07-.05-.31-.05-.74l.02-1.24c0-.39-.04-.67-.13-.86-.09-.18-.24-.33-.44-.44-.2-.11-.45-.17-.73-.17-.17,0-.35.03-.52.09-.08.03-.15.07-.22.14l-.59.53v-.53ZM119.43,43.25c.36-.02.76-.03,1.2-.03.38,0,.73,0,1.06.03v-.25h-.26c-.24,0-.39-.05-.43-.16-.04-.1-.07-.67-.07-1.69v-1.36c0-.72,0-1.22.02-1.5,0-.18.04-.29.08-.34.05-.04.16-.07.35-.07h.3v-.25c-.29.02-.61.03-.97.03-.43,0-.86,0-1.29-.03v.25h.32c.21,0,.34.05.38.16.04.11.06.69.06,1.74v1.33c0,1.01-.02,1.58-.07,1.7-.05.12-.19.18-.44.18h-.25v.25ZM110.73,40.3c.08-.18.2-.32.37-.42.17-.1.35-.16.56-.16.23,0,.44.07.63.2.19.13.34.34.46.63.12.29.17.63.17,1.03,0,.49-.1.86-.29,1.1-.2.24-.45.36-.77.36-.42,0-.74-.19-.96-.58-.22-.38-.33-.85-.33-1.39,0-.28.05-.54.16-.78ZM110.33,42.8c.33.35.76.53,1.28.53s1.01-.17,1.4-.52c.44-.38.66-.9.66-1.55,0-.55-.17-.99-.5-1.32-.34-.33-.78-.5-1.34-.5-.39,0-.73.08-1.03.25-.3.17-.54.39-.71.69-.17.29-.25.62-.25.98,0,.61.16,1.09.49,1.44ZM106.91,40.16h.76s.16,0,.16,0l.04-.41-.31.02c-.2,0-.46.01-.78.01.02-.76.05-1.25.07-1.45l-.1-.08c-.13.08-.35.18-.66.31.02.44.03.84.03,1.22-.19.09-.4.18-.63.27v.17c.22-.02.42-.03.63-.03v1.5l-.02.76c0,.23.03.39.09.51.06.11.16.2.29.27.13.07.3.1.49.1.07,0,.15,0,.23-.02.08-.02.16-.04.25-.07l.38-.45-.11-.14c-.07.06-.14.11-.21.14-.07.03-.15.05-.22.05-.12,0-.22-.03-.3-.09-.08-.06-.13-.15-.16-.26-.03-.11-.04-.37-.04-.77v-1.54h.14ZM99.05,40.16h.76s.16,0,.16,0l.04-.41-.31.02c-.2,0-.46.01-.78.01.02-.76.05-1.25.07-1.45l-.1-.08c-.13.08-.35.18-.66.31.02.44.03.84.03,1.22-.19.09-.4.18-.63.27v.17c.22-.02.42-.03.63-.03v1.5l-.02.76c0,.23.03.39.09.51.06.11.16.2.29.27.13.07.3.1.49.1.07,0,.15,0,.23-.02.08-.02.16-.04.25-.07l.38-.45-.11-.14c-.07.06-.14.11-.21.14-.07.03-.15.05-.22.05-.12,0-.22-.03-.3-.09-.08-.06-.13-.15-.16-.26-.03-.11-.04-.37-.04-.77v-1.54h.14ZM92.77,42.05v.19c0,.14,0,.34-.03.6,0,.1-.02.17-.03.21v.06s.02.06.09.08c.4.1.76.15,1.09.15.51,0,.91-.13,1.21-.39s.45-.56.45-.92c0-.17-.04-.33-.11-.46s-.17-.23-.29-.3-.37-.14-.75-.21c-.51-.1-.82-.2-.94-.29-.11-.09-.17-.22-.17-.4s.07-.34.21-.46c.14-.12.33-.18.57-.18.18,0,.35.04.51.12.16.08.27.17.33.26.04.07.07.23.07.46h.24c.01-.42.03-.72.06-.9-.37-.15-.73-.22-1.1-.22-.47,0-.82.11-1.08.33-.25.22-.38.5-.38.85,0,.19.04.35.13.48.08.13.21.24.38.32.17.08.51.17,1.03.28.28.06.47.14.57.23.1.1.15.23.15.39,0,.2-.09.38-.26.52-.17.15-.39.22-.66.22-.21,0-.41-.04-.61-.12-.2-.08-.33-.16-.4-.24-.04-.05-.06-.18-.06-.38v-.26h-.24ZM89.37,39.63c-.15.04-.39.08-.71.13v.23h.3c.14,0,.23.02.27.05.04.03.06.09.07.17.01.22.02.54.02.94,0,.59,0,1.05-.02,1.38,0,.22-.03.34-.06.38-.03.04-.11.06-.24.07l-.34.04v.23c.31-.02.63-.03.94-.03s.66,0,1.05.03v-.23l-.27-.04c-.15-.02-.24-.05-.28-.08-.04-.04-.06-.1-.07-.2-.02-.24-.04-.53-.04-.87,0-.36,0-.93.03-1.7,0-.24.02-.45.04-.65l-.09-.06c-.24.09-.43.16-.58.2ZM89.32,37.82c-.09.09-.13.19-.13.32s.04.23.13.31.19.13.31.13.22-.04.31-.13c.09-.09.13-.19.13-.31s-.04-.23-.13-.32c-.09-.09-.19-.13-.31-.13s-.23.04-.31.13ZM82.89,40.04c.07,0,.13-.01.17-.01.16,0,.32.06.46.19.14.13.46.55.95,1.28-.31.39-.62.76-.92,1.09-.21.23-.34.36-.39.39-.05.02-.14.04-.27.04v.24c.16-.02.29-.03.39-.03.09,0,.19,0,.3.03.2-.33.37-.59.51-.78.13-.19.32-.43.57-.73.52.79.81,1.21.87,1.29.09.12.2.22.34.32.28-.08.55-.15.79-.21v-.23c-.14,0-.24-.02-.3-.05-.1-.06-.23-.19-.39-.4-.24-.31-.54-.73-.89-1.25.61-.76.99-1.2,1.13-1.33.09-.08.2-.12.34-.13v-.23c-.18.02-.29.03-.35.03-.07,0-.15,0-.26-.03-.35.52-.7,1.01-1.04,1.46-.39-.63-.66-1.05-.84-1.24-.11-.12-.24-.22-.41-.28l-.75.37v.21ZM78.63,40.55c.6,0,.94.03,1.04.08.1.06.15.21.15.46v.23h.27c-.02-.34-.03-.63-.03-.88,0-.24,0-.55.03-.95h-.27v.26c0,.23-.04.36-.12.4s-.44.06-1.06.06c-.2,0-.43,0-.69-.03v-1.4c.02-.25.02-.49.02-.74.39-.03.77-.05,1.13-.05.45,0,.83.06,1.14.17.03.19.04.43.04.72h.27c.01-.5.07-.9.17-1.22-.25-.02-.5-.03-.74-.03h-.72s-1.51.03-1.51.03c-.12,0-.3,0-.53-.01h-.42s-.42-.01-.42-.01v.25l.3.03c.19.02.3.04.34.06l.08.1s.04.18.06.4c.02.23.03.52.03.87v2.16c0,.56,0,.93-.03,1.09-.02.17-.06.27-.12.31-.06.04-.2.07-.43.07h-.12v.25c.51-.02.92-.03,1.22-.03s.82,0,1.5.03h.62c.29.01.59,0,.89-.03v-.18c0-.19.03-.58.1-1.15h-.26c-.07.35-.14.63-.2.87-.14.05-.28.09-.41.1-.2.03-.45.04-.74.04-.44,0-.85-.01-1.23-.04,0-.16-.01-.41-.01-.76v-.56s0-.97,0-.97c.24-.02.46-.03.68-.03ZM68.31,40.05c.18-.22.41-.32.7-.32.19,0,.36.04.5.13.14.09.25.19.3.32.09.21.14.43.14.66v.22c-.18.02-.37.03-.57.03-.49,0-.94,0-1.35-.03,0-.45.1-.79.27-1ZM69.02,41.34c.5,0,.89-.01,1.17-.03.16-.01.32-.04.5-.08v-.23c0-.49-.13-.87-.4-1.14-.27-.27-.64-.41-1.1-.41-.31,0-.62.09-.95.27-.33.18-.55.38-.67.59-.18.32-.28.7-.28,1.14,0,.58.16,1.03.49,1.37.33.34.76.51,1.29.51.24,0,.48-.03.71-.09.23-.06.46-.16.67-.28l.13-.33-.07-.06c-.18.12-.36.21-.54.27-.18.06-.36.09-.55.09-.41,0-.74-.13-.99-.4-.25-.27-.38-.66-.4-1.18h.98ZM59.13,39.55l-.27-1.31-.02-.15c0-.07.03-.12.08-.15s.17-.05.35-.05h.25v-.25c-.45.02-.81.03-1.07.03s-.6,0-.97-.03v.25h.17c.17,0,.27.03.33.08.05.05.11.22.18.51l.69,2.94c.08.32.14.63.2.91l.21.97h.4c.21-.68.54-1.55.98-2.62l.74-1.78.65,1.77c.42,1.15.69,1.9.81,2.23.03.09.07.22.12.39h.4c.27-1.11.62-2.35,1.04-3.7.31-1.01.51-1.57.6-1.65.04-.04.11-.06.2-.06h.2v-.25c-.33.02-.61.03-.84.03-.21,0-.5,0-.87-.03v.25l.36.03c.15.02.25.04.29.06l.06.11s0,.09-.02.15c-.17.68-.29,1.14-.35,1.38l-.72,2.49-.95-2.67c-.26-.74-.47-1.36-.63-1.84h-.24c-.41,1.08-.69,1.82-.84,2.2l-.91,2.25-.56-2.5Z"></path>
</svg>
